<svg xmlns="http://www.w3.org/2000/svg" xmlns:xlink="http://www.w3.org/1999/xlink" width="100" viewBox="0 0 100 42">
    <defs>
        <linearGradient id="lun-b" x1="83%" x2="76.2%" y1="82.4%" y2="109.2%">
            <stop offset="0%" stop-color="#FFB401" stop-opacity="0"></stop>
            <stop offset="100%" stop-color="#FFB401"></stop>
        </linearGradient>
        <linearGradient id="lun-c" x1="116%" x2="44%" y1="40.9%" y2="55.4%">
            <stop offset="0%" stop-color="#FF7001"></stop>
            <stop offset="100%" stop-color="#FF7001" stop-opacity="0"></stop>
        </linearGradient>
        <linearGradient id="lun-d" x1="79.7%" x2="54.9%" y1="53.9%" y2="100%">
            <stop offset="0%" stop-color="#FFB301" stop-opacity="0"></stop>
            <stop offset="100%" stop-color="#FFB301"></stop>
        </linearGradient>
        <linearGradient id="lun-e" x1="83%" x2="50%" y1="-26.6%" y2="37.5%">
            <stop offset="0%" stop-color="#FF7001"></stop>
            <stop offset="100%" stop-color="#FF7001" stop-opacity="0"></stop>
        </linearGradient>
        <path id="lun-a" d="M0 0h26v26H0z"></path>
    </defs>
    <g fill="none" fill-rule="evenodd">
        <g fill="#161616" fill-rule="nonzero">
            <path d="M41 23.4c0 1.4-1.3 2.6-2.7 2.6H37v4h1.3c3.7 0 6.7-3 6.7-6.6V16h7v14h4V12H41v11.4zM74 22c0 2.8-2 5.4-4.9 5.4h-.2c-2.8 0-4.9-2.2-4.9-5.4V12h-4v10c0 6 4.1 9 8.9 9h.2c2.1 0 3.8-.7 4.9-2v1.2c0 3.8-2.4 5.3-4.9 5.3h-.2a5.5 5.5 0 0 1-4.9-3.3l-3.3 1.2a9 9 0 0 0 8.2 5.6h.2c5.1 0 8.9-3.7 8.9-8.8V12h-4v10zM96 12v7H86v-7h-4v18h4v-7h10v7h4V12z"></path>
        </g>
        <g transform="translate(0 8)">
            <use fill="#FF9501" xlink:href="#lun-a"></use>
            <use fill="url(#lun-b)" xlink:href="#lun-a"></use>
            <use fill="url(#lun-c)" xlink:href="#lun-a"></use>
            <use fill="url(#lun-d)" xlink:href="#lun-a"></use>
            <use fill="url(#lun-e)" xlink:href="#lun-a"></use>
        </g>
    </g>
</svg>
