<svg class="ico" width="20" height="20" viewBox="0 0 20 20" fill="currentColor" xmlns="http://www.w3.org/2000/svg">
    <path fill-rule="evenodd" clip-rule="evenodd" d="M9.16602 3.33301C12.0031 3.33301 14.509 4.75072 16.014 6.91633H17.4993L17.4993 11.6663V11.6663H19.166V13.333H17.4993L17.4993 13.333H0.832684V11.6663V11.6663C0.83271 7.06394 4.56366 3.33301 9.16602 3.33301ZM1.66602 14.1663H8.33268V14.5864C8.33268 15.0676 7.98994 15.4806 7.51697 15.5693L1.66602 16.6663V14.1663ZM12.4993 10.208C12.4993 9.63271 12.033 9.16634 11.4577 9.16634C10.8824 9.16634 10.416 9.63271 10.416 10.208C10.416 10.7833 10.8824 11.2497 11.4577 11.2497C12.033 11.2497 12.4993 10.7833 12.4993 10.208ZM7.29102 9.16634C7.86631 9.16634 8.33268 9.63271 8.33268 10.208C8.33268 10.7833 7.86631 11.2497 7.29102 11.2497C6.71572 11.2497 6.24935 10.7833 6.24935 10.208C6.24935 9.63271 6.71572 9.16634 7.29102 9.16634Z"></path>
</svg>
