<svg class="ico" width="20" height="20" viewBox="0 0 20 20" fill="currentColor" xmlns="http://www.w3.org/2000/svg">
    <path fill-rule="evenodd" clip-rule="evenodd" d="M9.99935 5.83333H18.3327V17.5H1.66602V2.5H9.99935V5.83333ZM3.33268 15.8333H4.99935V14.1667H3.33268V15.8333ZM4.99935 12.5H3.33268V10.8333H4.99935V12.5ZM3.33268 9.16667H4.99935V7.5H3.33268V9.16667ZM4.99935 5.83333H3.33268V4.16667H4.99935V5.83333ZM6.66602 15.8333H8.33268V14.1667H6.66602V15.8333ZM8.33268 12.5H6.66602V10.8333H8.33268V12.5ZM6.66602 9.16667H8.33268V7.5H6.66602V9.16667ZM8.33268 5.83333H6.66602V4.16667H8.33268V5.83333ZM9.99935 15.8333H16.666V7.5H9.99935V9.16667H11.666V10.8333H9.99935V12.5H11.666V14.1667H9.99935V15.8333ZM14.9993 9.16667H13.3327V10.8333H14.9993V9.16667ZM13.3327 12.5H14.9993V14.1667H13.3327V12.5Z"></path>
</svg>
